<svg version="1.2" xmlns="http://www.w3.org/2000/svg" viewBox="0 0 1642 284" width="1642" height="284">
	<title>logo</title>
	<style>
		.s0 { fill: #ffffff } 
	</style>
	<g>
		<g>
			<path fill-rule="evenodd" class="s0" d="m89.2 209.3l39.5-22.1v-57.9h-39.5v80z"/>
			<path fill-rule="evenodd" class="s0" d="m139.2 180.5l26.7-15.1 12.8 15.1v-79.2h-39.5v79.2z"/>
			<path fill-rule="evenodd" class="s0" d="m190.9 194.5l6.6 7.7 32.9-19.6v-102h-39.5v113.9z"/>
			<path class="s0" d="m291.6 151.1v-97c0-21-17.1-38-38-38h-133.1c-46.3 0-83.9 37.6-83.9 83.9v146.2l-18.1 10.1v16.4l137.4-61.9 35.4 45.3 94.2-59.3 9.6 13 36-63-39.6 4.3zm-96.1 60.7l-30.3-37.4-104.2 58.1v-132.6c0-32.8 26.7-59.4 59.4-59.4h133.1c7.5 0 13.6 6.1 13.6 13.6v99.7l-12.6 1.4 11.1 14.2-70.2 42.5z"/>
		</g>
	</g>
	<g>
		<path class="s0" d="m391.9 209.3v-12.1c4.1-0.1 7.2-0.8 9.4-2.1 2.2-1.2 3.7-3.4 4.6-6.6 0.9-3.1 1.3-7.5 1.3-13.1v-87.6q0-5.6 0.3-10.5c0.2-3.4 0.4-6 0.5-7.9-2.5 0.1-5.3 0.3-8.6 0.3-3.2 0-5.8 0.2-7.7 0.3v-14.5h107.1l1.1 41.3h-12.1c0-8.3-1.4-14.6-4.2-18.8q-4.2-6.3-10.5-8.4c-4.2-1.5-8.6-2.1-12.9-2l-10.8 0.2c-3.8 0.1-6.8 0.9-8.9 2.2-2.1 1.3-3.6 3.5-4.5 6.7-0.9 3.1-1.3 7.4-1.3 12.8v38.2h27.6l-1.1-18.9h14.5v50.9h-11.8c0-6.3-1-10.8-2.9-13.6-1.9-2.8-4.6-4.5-8-5.2-3.4-0.7-7.5-0.8-12.2-0.5l-6.1 0.2v35.8c0 3.9 0 7.6-0.2 11-0.1 3.4-0.4 6-0.7 7.9 1.9-0.1 4.1-0.3 6.7-0.3 2.6 0 5.1-0.1 7.7-0.2 2.6 0 4.6-0.1 6-0.1v14.5h-62.5z"/>
		<path class="s0" d="m511.2 197.7q6.3 0 9-2.7 2.7-2.7 3.3-7.8c0.4-3.4 0.7-7.2 0.7-11.4v-41c0-2.5 0-5.2 0.2-8.2 0.1-3 0.4-6.1 0.7-9.3-2.5 0.1-5.2 0.3-8.1 0.4-2.9 0.1-5.3 0.3-7.2 0.4v-14.3c6.6 0 12-0.3 16.3-1 4.3-0.7 7.7-1.5 10.1-2.5 2.4-1 4.1-2 5.2-2.9h9.9v80.5c0 2.3 0 5.2-0.1 8.4 0 3.3-0.3 6.5-0.8 9.5 2.3-0.3 4.9-0.5 7.6-0.5 2.7 0 4.9-0.1 6.7-0.1v14h-53.3v-11.6zm25.3-119.2c-4.2 0-7.8-1.6-10.8-4.7-2.9-3.1-4.4-7-4.4-11.5 0-4.5 1.5-8.4 4.5-11.6 3-3.2 6.5-4.8 10.6-4.8 4.1 0 7.8 1.6 10.6 4.8 2.9 3.2 4.3 7.1 4.3 11.6 0 4.5-1.4 8.4-4.2 11.5-2.8 3.1-6.4 4.7-10.8 4.7z"/>
		<path class="s0" d="m579.7 209.3v-11.6q6.3 0 9-2.7 2.7-2.7 3.3-7.8c0.4-3.4 0.7-7.2 0.7-11.4v-41.3c0-2.6 0-5.4 0.2-8.3 0.1-2.9 0.4-5.9 0.7-9-2.3 0.1-5 0.3-8 0.4-3 0.1-5.5 0.3-7.4 0.4v-14.3c6.6 0 12-0.3 16.2-1 4.2-0.7 7.5-1.5 9.9-2.5 2.3-1 4-2 5-2.9h9.2c0.3 1.6 0.4 2.9 0.4 3.9 0 1 0 2.1 0.2 3.2 0.1 1.1 0.4 2.7 0.7 4.7 2.9-2.5 6.3-4.7 10.2-6.7 3.9-2 7.8-3.5 11.7-4.7 4-1.2 7.6-1.8 11-1.8 13.2 0 22.6 3.9 28.3 11.6 5.7 7.8 8.6 20.1 8.6 37.1v33.1c0 2.3 0 5.2-0.1 8.4 0 3.3-0.3 6.5-0.8 9.5 2.5-0.3 5-0.5 7.7-0.5 2.6 0 4.8-0.1 6.6-0.1v14h-53.3v-11.6c4.2 0 7.3-0.9 9.1-2.7 1.8-1.8 3-4.4 3.4-7.8 0.4-3.4 0.7-7.2 0.7-11.4l-0.2-31.2c0-10.5-1.6-18.4-4.7-23.6-3.1-5.2-8.3-7.8-15.5-7.8-4.2 0.1-8.4 1.2-12.5 3.1-4.1 1.9-7.5 4.3-10.3 7.2 0.1 1.8 0.2 3.6 0.2 5.5v5.7l-0.2 43.2c0 2.3 0 5.2-0.1 8.4 0 3.3-0.3 6.5-0.8 9.5 2.3-0.3 4.9-0.5 7.6-0.5 2.7 0 4.9-0.1 6.7-0.1v14h-53.3z"/>
		<path class="s0" d="m771.5 212.8c-10.4 0-19.8-2.3-28.3-6.9q-12.7-6.9-20.1-19.5c-4.9-8.4-7.4-18.2-7.4-29.5 0-11.3 2.5-22.4 7.5-31.6 5-9.2 11.7-16.4 20.1-21.5 8.4-5.1 17.7-7.7 27.8-7.7 10.1 0 19.7 2.3 28.1 7 8.3 4.7 15 11.2 19.9 19.5 4.9 8.3 7.4 18.2 7.4 29.6 0 11.4-2.4 22.6-7.1 31.7q-7.2 13.7-19.5 21.3c-8.3 5-17.7 7.6-28.2 7.6zm1.1-13.4c6.6 0 11.6-2 15.1-6.1 3.5-4.1 6-9.3 7.4-15.7 1.4-6.4 2.1-12.9 2.1-19.6 0-6.7-0.5-11.5-1.4-17.3-1-5.8-2.5-11.2-4.5-15.9q-3.1-7.2-8.1-11.4c-3.4-2.9-7.5-4.3-12.3-4.3-6.4 0.1-11.6 2.3-15.4 6.4-3.8 4.1-6.5 9.3-8.2 15.6-1.7 6.3-2.5 12.9-2.5 20 0 7.1 0.9 15.6 2.9 23.2 1.9 7.5 4.9 13.7 9 18.4 4.1 4.8 9.4 7.1 16 6.9z"/>
		<path class="s0" d="m882.8 210l-33.6-74.6c-1.8-4.2-3.1-7.7-3.9-10.3-0.8-2.6-1.5-4.8-1.9-6.6-0.4-1.8-0.7-3.5-1-5.3l-8.6 0.4v-14h47.6v11.6q-5.2 0-6.9 2.7-1.6 2.7-0.9 7.2c0.5 3 1.4 6.2 2.7 9.5l13.2 31.6c1.2 2.6 2.3 5.4 3.5 8.2 1.2 2.9 2.3 5.7 3.3 8.7h0.2c1-2.8 2.1-5.6 3.2-8.4 1.1-2.9 2.1-5.7 3-8.7l12.1-33.8c1.3-3.7 2.6-6.7 3.7-9 1.2-2.3 2.3-4.5 3.3-6.4l-13.6 0.7v-14h39.3v11.6c-3.4 0.3-6.3 1.9-8.8 4.7-2.5 2.9-4.7 6.3-6.6 10.3-1.9 4-3.7 8.2-5.3 12.4l-28.3 71.3h-15.8z"/>
		<path class="s0" d="m1007.6 212.8c-10.5 0-19.9-2.4-28.1-7.1-8.2-4.8-14.6-11.5-19.1-20.2-4.5-8.7-6.8-19-6.8-30.8 0-11.8 2.3-19.8 6.8-28.7q6.8-13.4 19.2-21.6c8.3-5.5 17.9-8.2 28.9-8.2 11 0 12.1 0.9 17.8 2.6 5.7 1.8 10.8 4.7 15.4 8.8 4.5 4.1 8.2 9.5 10.9 16.2 2.7 6.7 4 14.9 3.8 24.6l-73.7 1.3c0 9.1 1.1 17.1 3.2 24 2.1 7 5.6 12.4 10.4 16.5 4.8 4 11.2 6 19.1 6 7.9 0 7.3-0.6 11.3-1.9q6-1.8 12-5.7c3.9-2.6 7.5-5.7 10.5-9.5l8.3 7.7c-4.8 7-10.2 12.4-16 16.2-5.9 3.8-11.7 6.4-17.6 7.8q-8.8 2.1-16.2 2.1zm-23.9-76.3h45.6c-0.1-5.8-1-10.8-2.5-14.8-1.5-4-3.8-7.1-6.7-9.2-2.9-2.1-6.5-3.2-10.8-3.2-7.2 0-12.9 2.4-17.2 7.1-4.3 4.8-7.1 11.4-8.4 20.1z"/>
		<path class="s0" d="m1071.5 209.3v-11.6c3.4-1.2 6.4-3 9-5.6 2.6-2.6 5.6-5.8 9-9.8l20-24.1c-2.2-2.8-4.6-5.8-7.1-9-2.6-3.2-5-6.3-7.5-9.3-2.4-3-4.7-5.7-6.9-8.2-2.3-3.1-4.7-6.3-7.1-9.7-2.4-3.4-4.1-6.3-4.9-8.8l-7.5 0.4v-14h47.4v11.6c-4.8 0.1-7.2 1.5-7.1 4.1 0 2.6 1.9 6.1 5.4 10.6l11 13.6 12.3-14.7c1.9-2.3 3.7-4.5 5.4-6.5 1.7-2 3.4-3.8 5.2-5.6l-12.3 0.9v-14h37.7v11.6c-3.2 1.2-6.1 2.6-8.8 4.4-2.6 1.8-5.1 3.8-7.5 6.3-2.3 2.4-4.9 5.4-7.7 8.9l-15.6 18.7 27.2 32.3c1.9 2.3 3.7 4.6 5.4 6.8 1.7 2.2 3.3 4.6 4.7 7.2l8.3-0.4v14h-48.7v-11.6c4.4-0.1 6.9-1.2 7.6-3.1 0.7-1.9-0.4-4.5-3.2-7.7l-16.5-18.7-13.2 16.7c-1.2 1.6-2.7 3.5-4.6 5.6-1.9 2.1-3.7 3.9-5.3 5.4l12.3-0.7v14z"/>
		<path class="s0" d="m1194.1 197.2c4.1-0.1 7.2-0.8 9.4-2.1 2.2-1.2 3.7-3.4 4.6-6.6 0.9-3.1 1.3-7.5 1.3-13.1v-87.6q0-5.6 0.3-10.5c0.2-3.4 0.4-6 0.5-7.9-2.5 0.1-5.3 0.3-8.6 0.3-3.2 0-5.8 0.2-7.7 0.3v-14.5c9.5-0.1 19.1-0.2 28.7-0.2 9.6 0 19.3 0 29-0.2 13.3-0.1 24.8 1.5 34.5 4.9 9.7 3.4 17 8.6 22.2 15.6 5.1 6.9 7.7 15.9 7.7 26.9 0 11-1.2 11.7-3.6 17.4-2.4 5.8-6.2 11.1-11.4 16q-7.8 7.3-20.4 12c-8.4 3.1-18.5 4.8-30.4 5h-6.8c-2.2 0-4.3 0-6.4-0.2v23.5c0 4.1 0 7.8-0.2 11.2-0.1 3.4-0.4 6-0.7 7.9 1.9-0.1 4-0.3 6.4-0.3 2.3 0 4.7-0.1 7.1-0.2 2.4 0 4.3-0.1 5.6-0.1v14.5h-61.2v-12.1zm43-58.1c1.9 0.1 3.7 0.3 5.5 0.4 1.8 0.1 3.7 0.2 5.7 0.2 8.2 0 15.1-1.5 20.7-4.4 5.6-2.9 9.9-7.1 12.8-12.6 2.9-5.5 4.4-12.2 4.4-20.1 0-7.9-1-13-3.1-17.6-2.1-4.5-4.8-8-8.1-10.4-3.4-2.4-7.1-4.1-11.2-4.9-4.1-0.9-8.2-1.3-12.3-1.3-4.1 0-6.8 0.6-8.9 1.8-2.1 1.2-3.6 3.3-4.4 6.3-0.8 3-1.2 7.1-1.2 12.2v50.5z"/>
		<path class="s0" d="m1330.6 209.3v-12.1c4.1-0.1 7.2-0.8 9.4-2.1 2.2-1.2 3.7-3.4 4.6-6.6 0.9-3.1 1.3-7.5 1.3-13.1v-87.6q0-5.6 0.3-10.5c0.2-3.4 0.4-6 0.5-7.9-2.5 0.1-5.3 0.3-8.6 0.3-3.2 0-5.8 0.2-7.7 0.3v-14.5c9.7-0.1 19.3-0.3 29.1-0.3 9.7 0 19.4-0.1 29.1-0.1 9.7 0 24.6 1.5 33.9 4.6 9.3 3.1 16.3 7.9 21.1 14.4 4.8 6.5 7.1 15 6.9 25.6-0.1 6-1.5 11.8-4.2 17.6-2.6 5.7-6.8 10.8-12.5 15.1-5.7 4.4-13.3 7.8-22.8 10.3 2.8 1.5 5.4 3.6 8 6.4 2.6 2.8 4.9 5.9 7.1 9.2l11.8 18.2c2.9 4.5 5.6 8.3 8.1 11.3 2.5 3 5 5.3 7.7 6.8 2.6 1.5 5.8 2.4 9.4 2.5v12.1h-33.4c-3.1-2.5-6-5.6-8.7-9.2-2.7-3.7-5.5-7.9-8.4-12.7l-15.8-25.2q-2.9-4.7-5.4-8.7c-1.7-2.7-3.5-5-5.6-6.9-2.3 0.1-4.5 0.2-6.4 0.2-1.9 0-4 0-6.1-0.2v29.8c0 4.1 0 7.8-0.2 11.2-0.1 3.4-0.4 6-0.7 7.9 1.6-0.1 3.5-0.3 5.8-0.3 2.3 0 4.5-0.1 6.7-0.2 2.2 0 3.9-0.1 5.3-0.1v14.5h-59.9zm54.4-75.9c8.2-0.1 15-1.4 20.3-3.7 5.3-2.3 9.4-6 12.1-11 2.7-5 4.1-11.3 4.1-19.1 0-7.8-1-11.9-3-16-2-4.1-4.6-7.2-7.9-9.4q-5-3.3-10.8-4.5c-3.9-0.8-7.7-1.2-11.5-1.2q-5.7 0-9 1.8-3.3 1.8-4.5 6.3c-0.8 3-1.2 7.1-1.2 12.2v44.1c1.8 0.1 3.6 0.3 5.5 0.4 1.9 0.1 3.9 0.2 5.9 0.2z"/>
		<path class="s0" d="m1550.3 212.8c-13.9 0-25.7-2.3-35.5-7-9.8-4.7-17.7-10.9-23.8-18.8-6.1-7.8-10.5-16.5-13.3-26q-4.2-14.3-4.2-28.5c0-9.5 1.5-18.5 4.6-28 3.1-9.4 7.8-18.1 14.2-26 6.4-7.9 14.4-14.3 24-19.1 9.7-4.8 21-7.2 34-7.2 13 0 24.8 2.4 34.6 7.2 9.7 4.8 17.7 11.2 23.9 19.2 6.2 8 10.8 16.6 13.8 26q4.5 14.1 4.5 27.9c0 9.2-1.5 18.3-4.6 27.6-3.1 9.4-7.8 18-14.2 26-6.4 8-14.4 14.4-24 19.3-9.6 4.9-21 7.4-34 7.4zm1.7-13.6q12.3 0 20.7-5.7c5.6-3.8 10.2-8.8 13.7-14.9 3.5-6.1 6.1-12.9 7.8-20.3 1.7-7.4 2.5-14.7 2.5-21.8 0-7.1-1-19-3.1-27.5-2.1-8.6-5.1-16.1-9.1-22.5-4-6.4-9.1-11.5-15.2-15.3q-9.1-5.5-21.3-5.4c-8 0.1-14.9 2.2-20.5 6-5.6 3.9-10.2 8.9-13.8 15.1-3.6 6.2-6.2 13.1-7.8 20.5q-2.4 11.3-2.4 21.9c0 7.1 0.9 15 2.6 23 1.8 8 4.5 15.7 8.3 22.8 3.8 7.2 8.8 12.9 15 17.3q9.3 6.6 22.5 6.6z"/>
	</g>
</svg>